{"title":"Revolution.2012.S01E02.HDTV.XviD-DEF","uid":7670962,"size":366551810,"categoryP":"video","categoryS":"tv_shows","magnet":"?xt=urn:btih:8f7ef239760d175e7aecfd725d0e0f186efe0a6b&amp;dn=Revolution.2012.S01E02.HDTV.XviD-DEF&amp;tr=udp%3A%2F%2Ftracker.openbittorrent.com%3A80&amp;tr=udp%3A%2F%2Fopen.demonii.com%3A1337&amp;tr=udp%3A%2F%2Ftracker.coppersurfer.tk%3A6969&amp;tr=udp%3A%2F%2Fexodus.desync.com%3A6969","seeders":0,"leechers":0,"uploader":"ablaublas","files":1,"time":1348570949,"description":"General\nComplete name                  : E:Revolution.2012.S01E02.HDTV.XviD-DEF.avi\nFormat                         : AVI\nFormat/Info                    : Audio Video Interleave\nFile size                      : 350 MiB\nDuration                       : 42mn 40s\nOverall bit rate               : 1 145 Kbps\nWriting application            : MEncoder SVN-r30881(20100311-gcc4.3.3)\nWriting library                : MPlayer\n\nVideo\nID                             : 0\nFormat                         : MPEG-4 Visual\nFormat profile                 : Simple@L1\nFormat settings, BVOP          : No\nFormat settings, QPel          : No\nFormat settings, GMC           : No warppoints\nFormat settings, Matrix        : Default (H.263)\nCodec ID                       : DX50\nCodec ID/Hint                  : DivX 5\nDuration                       : 42mn 40s\nBit rate                       : 1 004 Kbps\nWidth                          : 640 pixels\nHeight                         : 360 pixels\nDisplay aspect ratio           : 16:9\nFrame rate                     : 23.976 fps\nColor space                    : YUV\nChroma subsampling             : 4:2:0\nBit depth                      : 8 bits\nScan type                      : Progressive\nCompression mode               : Lossy\nBits/(Pixel*Frame)             : 0.182\nStream size                    : 307 MiB (88%)\nWriting library                : Lavc52.58.0\n\nAudio\nID                             : 1\nFormat                         : MPEG Audio\nFormat version                 : Version 1\nFormat profile                 : Layer 3\nMode                           : Joint stereo\nMode extension                 : MS Stereo\nCodec ID                       : 55\nCodec ID/Hint                  : MP3\nDuration                       : 42mn 40s\nBit rate mode                  : Constant\nBit rate                       : 128 Kbps\nChannel(s)                     : 2 channels\nSampling rate                  : 48.0 KHz\nCompression mode               : Lossy\nStream size                    : 39.1 MiB (11%)\nAlignment                      : Aligned on interleaves\nInterleave, duration           : 24 ms (0.58 video frame)\nInterleave, preload duration   : 504 ms\n","torrent":{"xt":"urn:btih:8f7ef239760d175e7aecfd725d0e0f186efe0a6b","amp;dn":"Revolution.2012.S01E02.HDTV.XviD-DEF","amp;tr":["udp%3A%2F%2Ftracker.openbittorrent.com%3A80","udp%3A%2F%2Fopen.demonii.com%3A1337","udp%3A%2F%2Ftracker.coppersurfer.tk%3A6969","udp%3A%2F%2Fexodus.desync.com%3A6969"],"infoHash":"8f7ef239760d175e7aecfd725d0e0f186efe0a6b","infoHashBuffer":{"type":"Buffer","data":[143,126,242,57,118,13,23,94,122,236,253,114,93,14,15,24,110,254,10,107]},"announce":[],"urlList":[]}}